<?xml version="1.0" encoding="UTF-8"?><svg id="Layer_2" xmlns="http://www.w3.org/2000/svg" viewBox="0 0 1920 654.7"><defs><style>.cls-1{fill:#ff8c00;}</style></defs><g id="Layer_1-2"><path class="cls-1" d="M1760.9,42.3l30.8,86.7-110.4,35.1,93.5,31.2s-59.1,318.8-61,316.9c-1.9-1.9-227.3-67.5-227.3-67.5l180.5-106.6-110.8-249c-37.5,27.8-70.2,69.7-93.1,130.9-113,301.9-144.2-13-144.2-13l-99.4,106.1,43.6,297.8-54.5-148.1-36.4,66.2-38.1-124.9-87.9,93.8s-199.5-88.6-415.3-204.1l38.7,72.9-283.1-77.9,164.9,203.9S157.2,341.4,257.9,164.1c14.9-26.3,30.5-47.8,46.2-65.4-12.3-8.5-24.3-17.1-35.8-25.5C-3.8-126.8,0,146.6,0,146.6v508.2h1920V86.8s-68.4-35.1-159.1-44.5Z"/></g></svg>