<?xml version="1.0" encoding="UTF-8"?><svg id="Layer_2" xmlns="http://www.w3.org/2000/svg" viewBox="0 0 1073.5 1341.4"><defs><style>.cls-1{fill:#fff;}</style></defs><g id="Layer_1-2"><path class="cls-1" d="M887.6,1146.8c-1-2.6-9.1-2.8-12.4-6.6-.8-.9-10.6-20.1-10.4-21.2s14.3-13.2,15.6-13.5,15.6,1.1,16.1,2,.4,9-.3,9.9c-1.3,1.8-13.6-.5-12.6,13.4s12.4,5.7,14,9.2l1.2,65.7,36.8,17.6c0-22.1-23-93.9-17.3-110.8,3.1-9.2,46.4-17.9,56.3-20.2-13.1-7.7-55.3-8.3-58.2-25.3-.8-4.8.2-41.8,2.1-45s52.4-28.5,52.1-34.2-50.3-24.4-53.2-33.8-.9-20.4-.8-27.2c.1-8.8.9-34.3,2.5-41.5,2.4-11.1,19.9-13.9,29.6-19.4,4.1-2.3,33.6-19.1,34-21,.8-3.7-51.8-29.9-54.9-37.1-13.9-32.4,25.3-25.5,31.2-37.7,2.2-4.6,4.1-25,6.2-32.8,12.5-44.8,29.4-89,41-134,1.4-5.3,10.6-40.4,10.1-42.5-.9-4.3-23.9-12.6-24.1-22.6s9.2-41,11.5-50.3c8.5-33.1,39.5-115,38.4-144.1-.3-7.1-31.9-103.5-35.6-107.8-8-9.3-9.2,5.3-14.8-7.1-5.1-2.3-40.2-12.7-41.5-14.5s-.4-7.3-1.8-9.7-5.7-2.8-6.7-6.8c-1.6-6.5,2.3-39.9,1-41.5-6.4-7.6-31.7,45.2-34.2,46.8s-12.6,4.2-13.3,4.2c-5.5.8-12.8-2.6-15.8-1.9-5.8,1.4-15.3,22.6-26,20.7s-12-25.3-17.3-29.7c-6.3-5.3-41.6-6.9-45.9-13.1s-5.4-72.8-9-72.9-12,30.2-13.4,33.7,3.3,1.4,1.9,3.8-3.5,1.1-4.1,2.2c-4.8,8.5-10.2,20.8-21.5,22.2-5.5.7-12.1-2.7-16.6-1.7-7.1,1.4-29.3,35.9-38.3,16.8-2.3-5-.6-19.2-2.7-20.8-3.8-3-38.8-9.9-45.8-12.7s-6.3-5.9-7-12c-2.7-22.2,2.8-48.8-1-71.5-11.6,8.6-29.9,62.3-38.6,66.9-14.3,7.6-39-11.1-49.7-9.7-3.6.5-13.2,17.5-17.5,20.8s-13,6.8-15.7,6.9c-11.8.3-8.4-19-12.6-22.3-8.3-6.5-47-5.9-53.4-14.6s-3-61.3-6.1-61.9c-5.7-1.2-32.7,49.2-35.5,50.5s-41.4-12.7-51.1-7.2-5.4,7.2-7.9,9.1c-30.6,23.1-54.6,52.1-83.4,77.6l-55.3,187.7c-4.5,6.9-19-8.3-30.2,1.8-8.8,7.8-21.3,54.5-24,56.1s-4.4-1.2-5.3-.7c-1.7.9-1.6,4.5-5.3,5.1s-15.6-2.7-20.9-2.1c-4.6,3.4-49.2-1.9-49.5.6s16.9,22.5,19.5,25.5c4.8,5.8,31.6,32.4,32.3,35.7,2.8,13.1-21.7,60.3-19.3,67.2s48.7,48.4,55.5,54.5c43.6,39.8,100,77.6,139.5,120.5,2.6,2.9,13,20.3,13.8,23.2s1.3,20.9.5,23.2-6.7,8-7.1,8.4c-7.4,5.3-43.5,9-44.7,11.3-2.8,5.3,61.2,25.7,56.9,39.6l.5,88.3c-6.2,12.9-43.7,5.3-46.4,10.1s17.9,15,20.3,16.2c13,6.5,24.8,2.7,28.4,19.6,2.5,11.6,9.6,76.2,5.7,83.1-5.9,10.3-43.9.3-55.4,8.1,6.9,10,41.7,18.9,45.1,28.4,5.3,14.9-7.4,72-1.5,81.5s34.1,15,37.2,14.9,11.8-19.1,11.9-20.3-2.5-4.6-2.6-7.1c-.8-26.8.7-53.5-1.1-80.3,3.1.6,10.6-1,12.8.2s14,20.2,14,21.5c0,3.3-13.9,9.2-14.7,12s1.1,16.9,1.9,17.3c3.5,2,7.5-11.4,8-12s3.8,1.9,7.1-2.4-.2-9.4,5.7-4.3,3.3,6.6,3.2,7.3c-.1,1.7-20.3,21.5-23.4,25.6s-11.9,14.6-8,15.8c8.6,2.8,20.5-10.6,29-14.8,23.8-11.7,51.1-11.7,73.3,3.4,3.2,2.2,16.1,16.1,17.6,16.5,8,1.7,16.6-23.1,18.5-24s10.2,4.5,10.5,5c3.5,6.4-11.6,15.7-11.6,18.5s24.4,23.2,24.9,25.2c.7,2.9-1.7,5-1.6,5.8.4,1.7,3.5,2,3.7,5.9s-4.4,17.5-4.7,18.4c-2.2,5.4-11.8,17.3-15.4,23.6s-9.7,23-10.8,23.7-9.2-5.2-13.9-3.5-13.2,14.8-18.1,17.9c-42.2,27-97.4,4.8-116.6-39.2-2.4-5.4-3.8-19.3-4.4-20.1-.9-1.3-27.3-3-31.3-3.2-7.8-.4-35,3.9-38-4s6.3-32.5,7.3-39.6c2.2-15.4,3.4-31.1,5.1-46.6l-62.6-58c-5.1-8.9-12.4-16.4.9-23,7.4-3.7,60.3-16.8,62.3-19.7,1.8-2.7-.2-40.4,2.4-47.5-10.6-14.9-69.2-32.4-67-53s.6-2.9,1.6-4.5c1.8-3,50.1-24.2,57.5-27.5s14.4-4,14.9-4.6c1.2-1.8,2.7-41.4,1.1-42.9s-6.5.2-9.2-1.1c-9.7-4.7-29.2-23.3-41.5-30.7s-40.7-19.6-42.7-22.3c-16.8-21.8,45.6-30.6,48.4-34.9s-1.4-2.2-1.6-2.9c-54.8-48.8-108.9-97.5-159.4-150.6-7.7-8-34.7-29.1-37.5-37.5-5.1-15.3,21.9-57.1,22.3-75.2L0,388.8c.2-18.6,21.5-3.1,31.3-.5s76.9,19.3,80.4,17,8.8-55.6,18-66.5c9.9-11.7,38.9,2.3,41.5-.4s6.3-17.6,7-20c6.3-21.4,8.7-46.3,14.5-68.4s20.2-77.2,25.9-85.1,23.2-19.8,30-27c27.5-28.9,50.5-63.3,89.4-77.6,10.6.6,36.2,14.1,45.6,11.5S426,11,441.6,4c27.6-12.5,19.9,19.2,20,32s-.4,43.8,1.1,45.5c2.5,3,45,5.5,52,8.7s12.4,15.4,13.5,15.3,4.8-9.7,6.5-11.5c9.6-9.8,45.9,4.9,48,3.5s7.5-18.9,9.7-22.8c9.8-17.9,23.8-45.2,34.5-61.5,6.5-9.8,15.4-20,25.6-6.9,6.6,11.4,2.1,92.6,5.2,96.2s41.2,10.1,46.2,14c7.3,5.8-1.2,10.8-1.2,11.5s5.8,4.5,6.5,4.4c2.4,0,4.7-16.4,9.5-18.4s23.9,4.2,28.5,1.6,22.3-50.9,26.6-59.5c4.8-9.6,18-32.1,29.7-16,8.1,11.1,7.5,84.7,10.2,102.3,5.2-1.5,38.6,6.3,41,8.5,4,3.6,8.6,33.4,12.5,32.4s13.2-15.7,24.4-6.9c8.1-19.1,16.7-39.7,26.6-57.9s23.3-41.1,30.6-49.4c11.2-12.9,23.9-8.1,25.9,8.8s-2.7,107.5.1,112.4,52.9,17.8,62.9,27.6c25.9,25.4,25,88.5,35.7,122.8-9.9,46.7-30.6,96-40.3,141.7-1.1,5.1-3.8,13.6-3.5,18.4.9,15.1,38.2,26.3,43.9,42l-62.6,164.3-21.1,90c6.4,15,50.8,34,45.6,51.5s-78.5,38.8-80.6,42.9-1.9,15.6-2.2,18.4-3.1,33.2-2,34.5,15.6,4.2,19.5,6c12,5.6,23.1,13.1,34.8,19.2s30.8,6.4,19.1,24.8c-4,6.3-73.4,32.2-79.5,42.5s-1,16.4,0,17.4c3.1,3,70.5,14.5,82.6,20.8,12.3,6.4,9.8,17-.4,24-9.1,6.3-74.8,30.7-76.2,35.8-.3,1.2,6.8,20.3,7.6,24.2,5.3,25.8,10.7,55.8,14.1,81.8.9,6.8,4.6,25.9,4.2,30.9-.2,3.2-1.4,5.5-4.4,6.7-6.9,2.8-27.1-15.5-34.4-20.1s-8.7-6.3-9.3-6.6c-8.4-4.3-21.4-3.2-28.6,3.4-7.2,6.7-13.6,29.5-23.5,34.5-11.9,6.1-51.1,5.8-62.8-.7-2.7-1.5-21.8-42.4-27.2-47.8,1.7.7,7.3-1.5,8-1s4.8,15.1,6.8,18.7c18.2,31.8,84.9,24.6,90.9-14.4,7.5-48.3-33.2-78.4-76.8-56.8-19,9.4-18.8,28.8-26.1,33.9-16.4,11.5-27.1-12.4-30.3-24.5-3.4-13.1,10.3-28.9,20.9-36l32.5-52.5c2.4,2.5,15.1,2.1,16,.5s-6-5.7,6.6-6.9.8,1,2.6,4.1c6,10.2,25.9,43.2,32.8,50.3s12.8,4.8,17,11.5c-1.1-4.9,1.4-17.7,0-21.5ZM790.6,176.4c-.8-5.6-.1-82.8-4-81s-4.7,11.8-4.7,12.5,2.6,2.1,2.6,4c.9,21.7,2.8,43.1,6,64.5ZM942.6,155.5c.8-.9-.6-19-2-22l-28,57c8.4-10.1,14.3-26.8,25-34.5s4.7-.3,5-.5ZM1043.6,335.4l-24.9-101.5c-2.6-3.4-65.5-30.1-68-27.4s.8,6.4,2,7.5,33.5,10.9,38.9,13.1,3.8,5.3,4.1,5.4c1,.5,5.6-5.1,12,1.8l36,101.2ZM862.6,1164.3c-4.8-4.1-32-36.9-34.4-37.6s-13.8,1.3-14.4,1.7-3.3,9.6-4.7,11.8c-2.4,3.6-12.1,12.9-12.3,13.8-.5,2.2,7.1,20.8,9.3,21.1s11.2-7.1,14.5-8.3c15.1-5.2,26.3-5.4,42-2.5ZM494.6,1227.3c.7-42.5-50.3-81.2-90.3-63.8-56.6,24.6-49,101.5,8.3,114.4s48.6-1.4,68-22.1c2.5-2.6,7.4-13,8.1-13.4,2.6-1.4,11.2,6.2,13.8,4.8s16.4-24.9,16.1-26.4c-1.1-5.7-23.7-7-24,6.5ZM779.6,1208.3c1.3-2.1,8.8-14.8,8.8-15.7s-6.7-11.2-7.4-11.3-7.1,8.8-7.1,9.5c-.2,2.5,6.6,13.2,5.6,17.5ZM511.9,1200c-1.3-.9-1.7-4.6-4-5.5-16.8-6.7-10.7,11.5,3,10.8,2.8-.1,5-2.3,7.6-3-1.2-2-4.2-.5-6.7-2.3Z"/><path class="cls-1" d="M495.3,201.7c3.3,2.2.3,5.4,8.6,2.6,9.8-3.3,32.1-29.7,36.4-30.7s54.7,7.6,61.6,9,35,6.9,41.6,13.3,17.7,29.4,17.8,31.2-6.6,7.9-.1,10.2c9.5,3.4,25.3-23.3,28.8-23.9s13.7,3.5,17.1,3.9c14.9,1.8,90.3,7.1,96.2,15.8s7,23.5,12,32c3.7,6.2,5.9,5.3,8.7,8.3s-.1,6.7,4.2,7.8c7.8,2.1,32.8-32,42.7-34.4,21.1,7.9,77.6,6.3,93.5,19.1s19.3,47.8,21.2,56.8c11,53.6-22.7,124.5-27.1,179.3,1.7,10.9,8.4,21.8,10.5,32.3,7,35.6-27.6,149.6-38.3,189.8-23.3,87.9-26.9,167.7-31.3,259.7-1.7,35.6-2.2,71.2-1.9,106.8-6.2,3.4-12.3.5-19.3,3-5.1,1.8-18.1,16.6-19.3,16.7-3.2.2-7.1-12.7-9.9-13s-1.5,5.6-5.5,4.5c-5-1.4,4.2-5.7-.7-7.4s-6,.6-8.5,1.1c-13.2,2.8-27.4,17-8.1-5.1l60.3-8.2c-.4-14.1.4-28.4,0-42.5-2.6-88.5-.1-177.1,10.1-264.8,1.2-10.1,8.6-29.8,8.6-36.4,0-6.8-20.5-13.4-26.1-12-8.9,2.2-13.7,37.7-14.7,46.8-40.1-1.7-80.4.3-120.5-1-31.3-1-62.6-5.4-93.9-6.1-26.3-.5-172.8,8.6-183.5,2.5s-13.7-15.2-17.5-18.5c-7.9-6.9-16.4-13.1-24.2-20.3-7.7-7.3-29.3-35.8-38.4-34.2s-26.9,25.6-26.9,31.1,3.7,3.7,4,6c4.2,34.1-.4,74.9.9,110,1.2,31.4,5.9,64,7.1,94.9,1.4,39-.5,78.5-1,117.5,6.6-.6,6.5,4.6,10.9,8.6,10.2,9.1,22.9,15.4,31.5,26.5,2.7.5,6.7-13.8,16-13.8,4.3,0,33.2,13.3,43.4,15.4s19.6,3.9,22.5,3.5c4.9-.6,3.7-4.6,6-4.1,3.6.8,43.7,55.8,43.5,59.5s-28.6-1.9-30.3-2.7c-5.8-2.7-16.8-32.6-21-34.1s-3.6,1.5-5.9,1.1c-8.6-1.6-18.6-2.9-26.8-5.3-6.4-1.9-26.9-13.7-28.4-13.6-7.5.7-22.2,20.9-26,20.2s-4.4-9.4-4.8-9.8c-5.4-7.1-21.9-30.8-28.1-33.4s-11.8-1-13.7-3.3c-2.9-48.4-9.3-98.6-11.1-146.9-1.4-38.6,1.3-77.4-.9-116.1-.7-12-3.8-58.8-7.6-67.4-2.6-5.8-12.3-7.8-17.9-12.1-41.7-32.7-79-72.6-124.1-99.9-6.2-8.6-61.4-55.5-62.4-59.7s14.3-27.3,16.1-31.6c5.6-13.5,22.7-71.9,27.9-78.1s45.7-25.6,55.8-35.2.5-7.4,0-13.9,2.9-19,3.3-20.8c7.7-32.5,22.3-66.8,31.4-99.4s16.8-83.5,24.4-90.8c.4-.4,8.5-5.8,9-5.5s-.2,2.6,1,3.4c13,9.2,52.4,9.4,57.4,15.6s4.3,14,6.8,18.2c7.7,12.5,36.8,10.8,50.2,17.8l21.3-24.1c2.1-.5,35.9,10,42,9.9s3.8-.3,4.8-1.8,3.3-18.1,3.1-19.1c-1-3.6-6.3-2.8-8.1-5-3.8-4.6-7.8-35.1-14.5-41.5-1.6-1.6-37.2-17-41.5-18.5-7-2.4-50.1-12.8-54.6-11.5s-46.9,43.7-54.5,50.5-1.1,4.6-1.5,5c-1.2,1-10.2.2-10.9-.9-2.7-4.5,55.6-60.5,63.5-66.1l103.2,22.8c4.2,2.2,1.4,8.3,2.5,12.5,3.3,12.4,11.6,35.5,21.5,42ZM652.6,257.4c1.7-1.8-8.5-42.9-13.5-47-9.7-8-86-24.5-98.2-20.2-8.4,2.9-39,27.7-37,37.5,1.7,8.4,39.2,22.3,41.9,26.1s0,13.6,3.8,17.9c1.9,2.2,42.2,11.4,44.4,10.6,3.8-1.4,8.2-25,17-29.1s39,7,41.7,4.2ZM366,252.1c-7.4-6.9-9.1-23.5-14.4-29-2-2.1-41.6-12.9-44.2-12.4s-5.8,4.2-6.5,5.6c-.5,11.4-18.3,54-17.1,61.8,1.8,12,57.4,11.1,65.4,19.4,8.9,9.2,2.7,46.4,7.4,50.6s29.5,6.1,30.9,5.4c3.6-1.9,15-35.4,26.8-37.7s33.6,9.4,44.2,12.8l21-88c-5.8,1.9-27.8-8.2-30.8-6.8-3.8,1.7-12.9,35.3-23.8,36.5-4.7.5-55.4-14.6-59-18ZM790.5,242.6l-87.4-16.8c-4.7.6-31,31.6-30.5,35,.8,5.9,20.9,10,23.5,13.6s1.9,18.2,3.4,23.6c2.9,10.7,13.9,6.2,22.2,8.8,12,3.7,33,15.2,45.4,8.6s12.6-18.2,14.2-18.8c7.8-3,29.2,9.9,31.9-1.2.7-2.8-25-43.5-22.7-52.9ZM608.3,302.1c-1.2,1-3.9,2.8-5.4,3.1-5.9,1.2-55-10-61-13.6-15.5-9.3-10.1-25.4-15.8-36.2s-23.5-18.3-25.4-17c-3.9,2.6-18.5,80.1-23.9,90.3,1,3.3,29.2,14.1,33.9,19.2,9.1,9.8,1.4,25.2,8.1,29.9,9.3,6.6,50.7,6.1,63.2,11.6,5.9-6,4.4-15.1,8.5-21.8,8.6-14.1,26.6-3.6,39.2-3.3l17.8-79.3c-1.7-4.4-7-2.1-7.8-2.7s1.6-4.4,1-5-18.1-4.4-18.9-4c-1.4.7-8.3,24.4-13.4,28.6ZM836.6,292.4c7.2-.5,4.3,5.2,10.3,9.2s23.6,6.5,27.7,11.3,2.4,22.5,10,29,26,10.2,29.7,10.3c15.8.6,16.3-27.3,22.9-29.7,6.9-2.5,42.2,16.5,44.1,4.1.8-4.9-5.4-6.1-7-9.5-3.9-8.3-10.7-41.8-20.7-43.3s-7.4,11.5-9.6,11.6-.5-9.6-4.7-12.2-51.6-13.8-56.5-14.5c-25.7-3.3-28.8,20.9-46.2,33.7ZM813.6,311.4c-.2-.3-3.5,3.1-7.4,3s-11.2-5.5-13.5-4.6-13.5,26-22.8,27.4-60.1-9.4-65.4-11.1c-20.9-6.5-13-28.8-26.8-40.2s-11.8-.6-14.5,4.5c-1.1,2.1-5.6,2.7-5.4,6.6.3,11.7-13,64.5-10.1,71.7,1.1,2.7,27.5,5.5,31.9,13.3s2,42.1,7.2,47.8,37.7,9.1,42.2,7.6,16.5-37.8,24.3-41.9c15-7.8,27.7,8,42.3,4.8-3-11.4,20.6-85.3,18-89ZM334.4,316.7l-63.3-12.3c5.9,17.9-6.8,35.6-11.5,51.5s-17.6,57.5-12,63c6.2,6,10.1-3.7,11.3-4.2,11.3-4.7,66-28,73.3-29.2,17.7-2.9,65.8,3.9,86,5.8,2.7.2,5.9-2,7.8-1.6s2.5,3,4.4,3.6c5.3,1.6,9.3-5.2,8.3,7.2l-1.8-.8c-10.7,24.4,14,46.6,30.3,61.8,3.1,2.9,20,14.4,20.3,16.6s-14.5,44.7-16.3,53.3c-1.4,6.6-8.1,38.7-4.5,42.3s31.9-1.6,36.3-2.5c22.3-4.3,43.8-13.5,64.6-21.9,0-10.1.4-20.3.2-30.4s-2.9-55.3-4.5-58.5c-7.2-14.1-106.3-43.7-109-49s12.6-49.5,3.6-60.5c-3.6-4.4-35.4-10.8-41.1-9s-23,34.8-26.5,35.5c-8.2-1.8-48.6-8.3-52.3-12.6s-8.3-35-7.2-39.9,8.1-4.5,3.8-8.2ZM860.3,322.7c-1.3-1.9-29.4-12.6-30.3-11.3,1.3,12.8-22,85-16.5,91.5s26.4,6.7,34.2,12.6c7.9,5.9,7.3,23.3,12.8,28.4s26.7,8.4,28.8,7.4c3.6-1.8,11.5-30,22.9-32.6s46.4,17.3,50.2,14.8,11.2-71.9,17-81c-10.7,4.6-34.4-13-43.4-11-7.2,1.6-4,21.4-20,23.1s-38.9-8.4-46.1-15c-11.3-10.5-5.5-20.6-9.7-26.8ZM495.4,360.6c-1.6-3-19-8.3-23.3-4.2-3.8,3.6-2.3,33.2-5,40,3.1,8.5,68.8,23.1,79,33,2,2,2.4,6.4,5.2,9.1,4.4,4.2,12.2,5.4,17.3,8.4,5.3,22.7,6.9,50.7,14.6,72.4,1.3,3.7,4.2,14.1,10.3,10.8s-1.9-16.6-1-17.5,3.7,2.6,6.9-.6,6.2-28.5,10.1-29.4-.6,3.2,2,2c-.3-3.6,1.9-6.3,2.9-9.6,3.3-11.2,13.8-66.9,13.8-77.2s-2.4-11.6-2.9-12.1c-.6-.7-17.1-2.7-17.8-2.1-2.4,1.9-2,27.4-13.8,29.7s-72.1-11.7-80-14.5c-29.8-10.4-12-25.8-18.4-38.1ZM650.4,393.7c-.8-.8-7.1-2.7-7.7-2.2l-16.1,106.3c5.9,8.1,13,3.7,21.1,9.2s15.8,29,23.7,33.3,52.1,9.1,56,7.6c12.2-4.8,22.8-48.6,41.2-35.3,0-11.1,22-85.5,19-89-.8-.9-21.9-5-23-4.5-7.7,3.5-11.7,37.5-31.9,41.1-6.1,1.1-55.3-5.7-62.3-7.8-11.3-3.4-12.3-50.8-20-58.5ZM337.7,395.4c-1.1-2.2-23.5,8.4-24,9.7-3.1,7.8,8.9,52.3,8,63.7,1.5,7.2-22,18.6-21.9,20.1.1,2.3,22,20.7,25,23.5-4.9-2.5-10.9-1.3-8.9,5.4.8,2.8,5.6,1.2,4.9,4.7-6-6.8-10.7,7.5-9.9,9s21.3,9.1,21.9,12.6-7.7,9.7,1.8,13.3c7.3,2.7,5.8-2.6,8.5-2.6s13,10.4,17.3,12.7c32.2,17.1,34.5,7.9,21.9-20.9-2-4.7-14.4-24.1-14.6-25.5-.2-2.2,2.9-5.3,3-9,.2-6.2,1-20.4-.2-25.8-2.1-9.4-16.9-13.5-19.4-20.5-5.5-15.3.3-44.7-3.6-59.5-2.1-8.1-9.8-4.9-10.8-5.7s1.3-4.3,1-5ZM872.6,640.4h-16c-.2-2.5-.2-1.7,1.5-2,8.1-1.5,20.4,1.1,29,0l50.5,6c7.9-23.9,11.3-46.6,15.3-71.2s8.6-23.9,3.8-28.1-3.3-.4-5.1-1.1-.9-2.4-1-2.5c-.7-.3-7.8,9.7-8.7,11.8-3.7,8.8-4,32.8-7.2,37.8-1.7,2.6-49.5,34-52.7,34.4-16.9-5-74.8-2.6-87.1-9.7s-16.5-21.8-19.8-25.3-10.6-10.7-12-11c-9.4-2.2-41.7,30.9-54.1,33l-74.5-9.4c-3.7-1.3-21.6-43.2-27.6-49.3s-3.8-3.1-7.2-3.7c-16.3-3.2-70.4,22.9-92.1,27s-46.4,1.7-69,3.5c-.2-3.7,13.9-2.6,15-4s-2.9-4.1-2.9-6.5,6-16.8,6.8-22.1c1.4-9.5.2-20.5,1.2-29.8s6.5-37.2,5.6-40.6c-2.3-8.5-41.2-32.7-42.3-35.2-3.1-6.8,1.7-36.9-2.7-40.8s-44.2-4.3-45.6-2.6-.5,4.5-1.4,5.6c-1.5,1.7-4.5.9-6.2,4.8s-4.3,39.3-3.2,43.7c1.6,6.7,22.6,23.4,23.7,27.2,12.1,41.6-18,71.3,32,98,2,1.1,8,2,8.2,2.3,1,1.4-5,5.1-6.2,7.3-2,3.8-8.2,21.8-7.3,25.7,1.7,7.6,10.9,7.9,16.5,10.6,14.2,6.9,44.3,22,56.1,32.9,12.6,11.7-6.9,18.8,3,25,7.9,4.9,66.8,18.5,80.3,21.7,17.1,4.1,34.8,5.6,51.9,10.1,10.7,1,5.3,30.6,7.9,34.6s40.4,2.1,42.3,1.2,2-22.1,2.8-25.3c3.1-12.2,28.1-3.9,36.2-3.7,14.1.3,123.8-6.5,129.3-11.2s3.3-54.4,17.5-64c6-4.1,10.8-1,15.7-4.8ZM289.9,424.2c-.3,0,.1-1.9-.7-1.8-11.1,2.1-28,18.7-38.2,24.8s-53.6,27.3-56,30.4-3.9,20.5-2.8,22.7c8.6,1.8,43.3,27.9,48.1,28s7.9-16.3,18.9-16.1,31.2,9.2,35.5,10.6,9.4,6.3,10,5.5,4.4-20.9,3.9-21.9c-1.8-3.2-32-13.6-32.9-15.2s24.7-35.2,25.8-40.7-3.7-26.4-4.9-27.2-5,.7-6.7.7ZM832.3,435.7c-3.6-4.4-19.3-4.7-24.9-3.7.2,11.4-22.4,88.8-19.4,92.4,1.7,2.2,16.5,1.2,21.2,5.3s3.7,25.6,7.3,31.9,47.9,14.5,51.1,12.3,8.9-35.2,19.5-36.5,17.5,5.2,18.4,6.5c1.4,2,.6,8,0,8.5-3.5,2.5-9.1-3.9-9.6-4-11.9-2.3-14.7,31.1-18.6,34.8-7.6,7.3-67.2-6.2-71.4-16.5s-3-27.5-4.5-29-14.9-3.4-16.6-.5-5.5,32.6-4.9,35.6,20.9,33.4,22.8,34.2c24,4.9,59.1-1.4,77.5,15.5,15.4-20.6,39.8-32.8,53.4-54.6l24.2-108.8c-.5-2.2-31.5-12.1-33.3-11.5-3.5,1.1-7.8,16.2-11.2,18.9s-13.7,8.1-14.5,8.5c-8.1,3.3-44.9-6.3-52.3-11.7-10.1-7.2-9-21.6-13.9-27.6ZM726.2,592c10.8-9.6,42.1-36.6,44-48.5s-2.1-25.3-10-20-18.3,30-27.6,34.4-55.6-3.5-64-6.9c-14.9-6.1-18.6-30.1-27.4-35.6s-16.8-3.5-17.5-2.9c-1,.8-3.2,23.5-2.8,26.3s24.5,45.6,26.8,47.2,52.4,10.2,58.4,10.5c11.9.7,11.9,2.8,20-4.4ZM264,536.7c-5.9,3.7-13.9,19.2-24.8,18.7s-49.7-27.9-56-26.7-13,29.9-12.3,34.9,15.6,19.1,18.7,22.2c5.9,6,55.6,51.7,59.5,51.5s4.2-6.7,6.5-8.4c3.4-2.4,22.7-12.5,26.2-12.9,6.3-.8,14.7,3.5,21.7.8s12.7-21.8,20-27,11.4-3.9,15-7c4.9-4.3,3-7.6,5.1-9.9s8.8-3.1,9-3.5c.9-1.7-11.8-8.6-12.8-8.8-4.8-1.1-12.7,0-20.7-2.2-14.4-3.9-39-21-50.5-22.6s-2.6-.4-4.7.9ZM373,581.1c-.4-.2-5.5-6.9-7.3-4.7s.2,4.5-.8,6.7c-3,7-14.9,35.7-19,39.3-14.3,12.5-64.2,15.4-83.2,25l76.9,64.4c1.6.4,13.4-5.3,14.6-6.4,4.2-4.3,1.3-7,3.9-12.1s23.1-20.1,28.9-19.9c7.6.3,52.7,35.7,62,42.8,13.5,10.4,29.2,30.7,47.2,36,19.2,5.7,83.4,8.7,105.9,9.1,6.3.1,17.3,1.9,20.4-4.7,3.7-7.8-8.4-22.9-15.1-26.7l-130-31.7c-1.9-1.6-6.9-16.7-7.5-19.8-1-5,.3-17.5-.3-18.2-1.4-1.7-17.9-1.7-21-2.5s-40.5-33-41.4-35.6c-2.6-7.4-.2-27.3-5-33-4.7-5.6-21.7-5-29.2-8.3ZM934.6,652.4c-13.2,2.8-60.5-2.3-69.6,2.9s-10.1,49.1-13.4,58.5c-3.6,10-40,12.1-50.6,13.4-30.9,3.8-63.7,5.8-94.9,5.2-5.2-.1-26.2-6.2-28.2,1.6s2,6.2,1.8,8.9c-.4,8.3-5.4,20.5,6.4,22.5,23.5,4,66.8-.8,93,0,15.4.4,57.2,8.2,69.2,2.2s24.4-54.1,29.3-56.8,19.2,8.6,24.7,8.5,3.7-1.9,6-2.8,3.8,1.2,4.3.9c2.8-2,15-58.1,22-65Z"/><path class="cls-1" d="M680.3,1047.6c6.1,13.6,10.2,29.9,16.4,43.1,1.7,3.7,15.6,21.6,13.9,23.6s-5.5.3-6,1,3.4,9.8-5.2-.3l-49.3-114.7-55.5,120.5,195.9,1.5c3.6,3.1-41.9,58.4-40.7,67.4,18.2,45.6,48.4,84.9,72.7,127.1-1.4,3.8-57.5.4-65.5.5-24.6.2-55.1,3.7-79,2.1s-2.2-3.1-3-3.1c-1.5.2-15.9,26.3-18.5,25s-6.1-14-10.5-17.1c-2-1.4-3.7.6-5.5-.3s-4.7-5.4-7.6-5.6-3.9,2.3-6.9,2.1c-10.3-.5-20.7-1.2-31-2.1h-100.9c-3.2-.9,7-17.4,8.2-20.7,9.7-27.4,27.2-55.6,35.5-82.6s2.8-9.7,2.7-10.2c-.4-3.1-4.2-2-5-4.1s1.6-3.6.5-6.3-18.8-18.9-17.5-20c2.7-2.4,23.8,1,29.4-.2s2.3-4.8,6.6-2.8c-1.7-4.4,4.6-9.2,4.8-12.7.3-6.3-11.1-15.1-8.8-22.3-2.4,6.6-8.8-8.2-8-9l37.5,2,66.5-145c3.5.1,5.4,2.8,7.2,5.3,6.9,9.6,20.6,44.9,26.5,58ZM629.6,1136.3c-4.8,1.8-32.6,0-34,1s15.2,29.7,15,34c-2-15.6,4.5-28.7,19-35ZM677.6,1157.3c1.9,1.3,33.8-1,39,0l-73,117c-5,2.2-48.3-75.8-52.4-78s-18-1.1-23.6,0c10.7,10.7,72,104,78.5,105s20.8-31.6,23.3-35.7c20.6-34.1,40-69.1,58.7-104.2-3.3-3.9-11.1-23-15.1-24-11.7-3.1-35.3,2.8-48.5-1,6.9,1.5,12,20.3,13,21ZM734.4,1154.1c.7-.5,7.4-14.8,6.7-15.9-1.9-3-16.7-2.3-17.6,0s7.1,18.2,10.8,15.8ZM666.4,1166.9c0-10.2-8.3-18.5-18.5-18.5s-18.5,8.3-18.5,18.5,8.3,18.5,18.5,18.5,18.5-8.3,18.5-18.5ZM664.6,1196.3c-.6-.7-11.9,6.2-18.4,6-5.9-.2-23.5-11-24.5-10-1.7,1.6,18.1,38.2,21.5,42,.9-4.8,23-36.4,21.5-38ZM782.5,1301.2c.3-6.3,8.7-18.3,7.7-23.9s-22.3-37-25.8-43.3c-7.3-13.3-12.9-27.7-20.8-40.7l-64,111,102.9-3.1ZM563.3,1225.7c-2-2.4-14.5-17.6-15.6-17.9-4.3-1-6.3,16.4-7.8,20.2-10.4,25-25.4,49.9-35.1,75.3l122,1c-22.7-24.8-41.8-52.9-63.4-78.6Z"/><path class="cls-1" d="M487.6,1025.3c1.1,1.5,32.5-16.5,35-14s-1.5,3.5-1,4,5.4-3.2,4.8,2.3-8.1,1.9-8.9,5.7c10.4-4.2,7.6.8,5.9,8.4l-62.4,28.6c3.1-6.6.3-50.1-1.5-52s-5.6,2.8-7,2.5c6.6-10,1.3-8.6.2-13.2-2.6-11.3,4.4-8.2,5.6-12s-.4-12.7-.9-13.3c-1.1-1.4-10.3,6-11.5,4-3.6-6.1,3.4-10.2,3.5-12.6s-3.6-3.2-3.9-4.2c-.6-2.1.4-9.7,0-10.2s-14.3,1.6-14.8,2.1c-5.6,4.4-5.9,82.3-5.3,94.3-9.1,8.6-8.8-5.6-9.8-5.3-1.6.4-1,6.4-1.2,6.7-1.1,1.8-9.9,7.5-10.8,7.2-4.2-1.4-6.6-79.1-8-89-1.6,1.1-14.3,7.8-15,7-1-1.2-1.2-29.6-.5-31,1.5-3,57.1-25.2,61.5-25.6,8.9-.7,7.2,17.2,7.1,23.1s-4.4,3.9.6,4.3,41.5-19.7,50.8-21.5,2.5,2.4,4,2.2c15.2-2,5.9-2.6,3.5-6s2.1-4.7-8.4-8.6-.5,3.3-2.5,2.1-7.6-11.1-7.9-11.8c-25.7-56,42.5-148.4,98.8-119.6,3.3,1.7,12.3,12.1,10,14.4s-9.7-12-12-10,5.7,6.4,6,7.5-2,7.4-2.2,7.8c-3.1,7.2-8.2-8.6-11.8-5.3s7,7,7,7.5c-.1,1.4-7.7,2.9-7,6.5,6.1-3.6,12.4-2.6,18,1-8.4-9.8-1.3-6.1,0-8s-1.5-3.5-1-4c1.6-1.6,9,4,9.5,4,1.3,0-.7-3.7,2-3s6.9,15,7.4,17.6c8.2,44.9-27.3,92.7-68.7,107-2.5.9-11.6,1.1-12.1,1.4s-4.3,9.9-4.1,10.4c.6,1.6,4.4-1.1,5-.5s-2.7,10.5-3.2,10.8c-2,1.6-36.7,8.4-38.4,11.1s1.4,9.6-2.5,13c1.9,1.5,14.7-6.9,17.6-6.9s.5,3.1,1.8,2.9c2.3-.4,14.2-5.2,15-5,1.7.5.3,22.1-.5,23-1.2,1.4-30.4,6.7-34,10.5s-2,6.4-2,7c0,3.4-.7,23.5,0,24.5ZM534,824.7c-52.5,42.2,5,107.5,40.1,46.6,20.8-36.2-5.4-74.5-40.1-46.6Z"/><path class="cls-1" d="M884.6,772.4l-5.9,110.4c-7.7,2.1-.7,4.5-1,8s-4.1,3.7-4.8,4.8.3,3.9-.4,4.6-12.3,5.7-12.8,5.2c-2.3-2.3-8.2-55.8-12-63l-15.6,56c-5.5,1.2-5,16.5-14.9,12-6.2-2.8-18.2-31.1-25.5-36.1-1.8,8.1,1.5,45.5-13.5,42-4.1-1-1.5-6.3-4-7-5.3-1.5-4,11.5-4.5,12-.8.8-12.6-.5-13-1-3.8-4.4,4.2-102.4,9.9-115.6,7.6,0,9.6-10.1,12.8-11.2,13.2-4.7,4.8,6,10.3,10.8v-12c2.2,1.2,18.9-1.6,19-.5s-4.6,8.8-3,10.5,4.1-1.8,4.5-1.7c4.8.6-3.2,14-3.3,17s4.1,24.3,5.4,28.7,2.7,10.1,5.4,13c-1.5-9.5,7.5-64.6,12-68.5s14.1,2.9,15,1.6-.6-9.3,0-10,14.4-2.9,15.4-2.7c2,.3,2.2,4.2,6.9,3.6s16.4-12.5,17.7-10.8Z"/><path class="cls-1" d="M733.6,794.4c-2.2,2.2-9.6-12.1-12-10s5.8,6.1,6,6.5-2.1,8.3-2.2,8.8c-3.2,7.4-8.1-9.1-11.8-5.3s6.9,6.5,7,7c.2,1.6-9.2,4.7-7,7s13.1-5.7,18,1c-8.4-9.8-1.3-6.1,0-8s-1.5-3.5-1-4c.8-.7,7.8,2.6,9.5,3.1s.2-2.8,2-2.1c2.6,1.1,6.2,13.1,6.8,16,10.8,48.5-40.9,121.3-94.4,108.6-1.2-.3-10.5-3.7-10.9-4.1-2.3-2.5.7-6.3-6.3-8.7-4.2-1.4-2.4,2.9-4.7,1.2-12-8.5-14.3-39.3-13-52.5,4.4-42.5,57.5-100.9,102.6-79.7,3.6,1.7,14,12.5,11.3,15.2ZM687.4,816.6c-33.8,4.3-54.9,70.4-19.6,78.1,46,10,74.7-85.2,19.6-78.1Z"/><path class="cls-1" d="M466.2,786.8c9.5,7.4,4.2,9.7,6.5,16.8,1,3.1,6.9,2.9,8,12.2,5.2,44.2-39.3,91.6-79.2,103.8-2.9.9-20.6,5.8-21.8,4.7s1.9-9.4,2.1-9.9,3.2.1,3.9-.6c1.5-1.5.6-4.2,1-4.5s8.2-.3,8.9-5.1c-5.2-.8-7.6,6.9-9.9,1.4-5.2-12.1,4.3-9.5,5-11.9l-5.1-64.5c-2.5-.5-11.6,7.6-12,7-4.3-6,3.8-11,7-15-2.4-1.4-6.6,3.5-7.9.3s0-29.4.8-30.7,10.1-4.9,11.7-5.6c21.3-8.8,61.9-13.5,81,1.3ZM436,861.8c7.3-11.4,16.4-35.4-1.7-42.6-2.1-.8-12.7-2.8-13.7-1.8-2.3,2.3-1.3,56.6-2,64,7.4-5.8,12.4-11.8,17.4-19.6Z"/><path class="cls-1" d="M576.6,1025.3c1.2,1.5,32.6-16.3,35-14s-1.5,3.5-1,4c.8.8,3.5-3.9,3.9,1.4.4,5.1-5.1,1.8-7.9,6.1,9.5-4.9,4,9.2,1.5,11.5-4.7,4.3-29,6.1-33.5,15.5-4.4-1.5-22.6,12.1-24,10.5-2.5-2.8,3-9,3-9.5s-2.7-1.9-2.7-3.1c0-14.2.3-20.1-2.3-35-.3-1.8,1.5-4.8,1-5.4s-6.8,4.6-8,4,4.2-6.2,4-8.5-4.4-2.9-4.1-9c.4-6.4,4.9-4.9,5.9-8.2s-.4-12.8-.8-13.3c-.9-1.2-9,4.6-11,5-2.5-4.7,3-11.6,3-13.5s-3.1-1.7-3.4-4.5-1.8-11.8-1.6-12.4c.7-3.2,49-23.7,55.5-25.3s2.5,2.9,5.5,2.3c8.7-1.8,18.8-5.1,27.4-7.6,2.4,2.7-4.2,18.4-3.5,19s4.7-2.1,5,.5-3.8,9-4.2,9.3c-1.5,1.3-37.3,9-38.3,11.1-1.8,3.4,1.4,9.5-2.5,13.1,1.5,1.2,14.9-6.2,17.7-6.8s2.8,2.1,4.7,1.8,11.5-4.2,12.1-4c2.2.8,1.1,18.4.5,20.5-1.6,5.6-37,7.4-37,20s-.7,23.5,0,24.5Z"/><path class="cls-1" d="M853.6,923.4c.9-.9,6.7,1.2,8.3.8,5.2-1.1,8.7-12.1,14.5-6.2l-3.3,115.4c-7.1,1.4-8.1,12.3-11-3.1l-5.5,11c-.6-5-1.7-38.4-3-40s-15.5,5.2-16,6.7c-.9,2.6.3,16.5,0,20.9s-2,3.9-2.2,6.9c-.2,4.7,4.1,8.1,1.6,13.5s-10.1-2.3-11-2c-1.6.5-2.2,6.6-4.5,7.6s-2.2-1.8-3.4-1.5-3.3,4.1-4.6,2.9-.5-32.5-3-36-4,2.9-5,2,4.8-8.2,4-10-19.1-9.1-.9-15.7c-1.4-7.2-3.9-53.5-1.1-55.8s13.8-5.6,14.5-5.5c1.8.3,1.8,5.1,3.5,5s2.4-4.6,4.1-5.4c13.1-6.2,7.4,3.8,7.9,4.4s4.4-1.6,5-1c1.4,1.6-6.1,39.4-4,42s15-5.2,15-6c0-6.6-1.8-49.2,0-51Z"/><path class="cls-1" d="M713.6,936.4c.7.8,3.6-3.9,4,1.5.9,12.2-5.3,40-6.1,54.9s2.4,33.3,1,40-6.5,7-8.9,5.5-.4-12.7-1.6-12.9c-4.4-.7-.5,6.9-.6,7.4-.1,1-2.6,2-2.9,4.2-.7,4.9,7.2,7.6-7.3,5.3-7.7-11.4-14.2-23.6-19.8-36.2-5.1-11.5-13.5-43.2-21.1-51.4-8.5-9.1-20.1,24.5-22.7,29.7-.4-8.1-5-34-3-40.3s4.1-2.9,5.5-4.8.1-5.5.5-6,12.5-3.5,13-3c1,1-1.7,3.9-1.6,4.5,2.3,14,2.2-2.5,3.6-4,5.3-6,8.9,3.4,7,8.5,3.4,0,3.3-7.1,4.5-7,3.2.3,21.7,52.7,29.5,58-1.1-12.4-3.3-25.1-2.1-37.6.2-1.8,2-13.6,2.3-14.2s4.1-1.7,5.3-3.2.1-5.6.5-6c.7-.8,20.2-2.8,20.8-1.3s-.4,7.7.2,8.3Z"/><path class="cls-1" d="M796.3,949.1c-1,.6-15.2,2.3-15.8,2.7-5.4,3.9-5.7,82.1-4.9,93.8-6,4.3-9.9,3.5-9.5-4.3-3.2,1.7-2.5,8.2-5.5,10.6s-2.6-.5-4,0-2.1,2.5-2.5,2.5c-5.4,0-5.9-85.3-8.5-89s-24,14-25,13,1.5-11.1,1.9-11.6c1.2-1.6,10.2-2.3,10.1-3.9-.2-6.5-5.6.9-6,1-7.8,2.9-4.6-11.1-4.7-15.4s-2.6-2-2.3-2.6c1.7-3.6,69.5-31.1,73.4-30.2,8.9,1.9,5.3,32.3,3.4,33.5Z"/><path class="cls-1" d="M774.5,1068.4c.4.4,0,3.6.9,4.6,41.7,47.4-48.1,51.1-39.3,12.2,2.6-11.3,31.9-22.8,38.5-16.8ZM776.2,1080.7c-12.2-12.7-39.2-7.2-30.9,16.4,7.5,21.1,48.2,1.7,30.9-16.4Z"/><path class="cls-1" d="M531,1109c-23.6-27.5,14.1-49.1,32.5-33.1,25.7,22.4-14.5,54-32.5,33.1ZM545.4,1073.6c-19.9,1.2-24.4,33.2-.2,32.8,23.8-.3,22-34.2.2-32.8Z"/><path class="cls-1" d="M425.6,1274.3c39.4-11.6,63.2-34.7,40.1-76.6-8.3-15.2-15.9-14.2-25.1-22.9-1.4-1.3-1.7-1.6.5-1.5,24.3,1,45.3,41.7,41.4,64.4-3.4,19.3-38.2,40.2-56.9,36.6Z"/><path class="cls-1" d="M475.3,604.7c20.7,1.2,113.7,11.8,130,18.5,12.7,5.2,28,40.2,31,41.2s49.2,1.7,51.6.8c7-2.6,3.2-29.9,20.3-32.7s86.7.8,95.9,2.4,3.8.6,2.4,2.9-25.1,8.1-29.5,8.5c-12.2,1.2-61.1-4.1-66.8-.8s-6,26.5-15,31-59.8,1.6-65.4-1c-9-4.1-19.4-35.5-29-41-4.3-2.4-24.8-6.1-30.9-7.1-22-3.6-75.4-13.1-94.9-13.1-3.4,0,2,4.2-1.9,3.9s-20.1-9.1-22.5-12c9.2-1.8,15.6-2.3,24.7-1.7Z"/><path class="cls-1" d="M646.3,1160.6c10.9-3.8,8,11.2,3.6,12.6-8.5,2.8-10.1-10.3-3.6-12.6Z"/></g></svg>